<?xml version="1.0" encoding="utf-8"?>
<svg width="79px" height="18px" viewBox="0 0 79 18" version="1.1" xmlns:xlink="http://www.w3.org/1999/xlink" xmlns="http://www.w3.org/2000/svg">
  <desc>Created with Lunacy</desc>
  <g id="微信支付logo">
    <g id="微信支付logo">
      <path d="M7.20349 11.2442C7.11172 11.2909 7.01996 11.3143 6.90525 11.3143C6.6529 11.3143 6.44643 11.174 6.33173 10.9636L6.28584 10.8701L4.4735 6.84935C4.45056 6.8026 4.45056 6.75584 4.45056 6.70909C4.45056 6.52208 4.58821 6.38182 4.77174 6.38182C4.84056 6.38182 4.90938 6.40519 4.9782 6.45195L7.11172 7.9948C7.27231 8.08831 7.45584 8.15844 7.66231 8.15844C7.77701 8.15844 7.89172 8.13506 8.00642 8.08831L18.0087 3.55325C16.2193 1.4026 13.2599 0 9.91053 0C4.45056 0 0 3.76364 0 8.41558C0 10.9403 1.33058 13.2312 3.41821 14.774C3.5788 14.8909 3.69351 15.1013 3.69351 15.3117C3.69351 15.3818 3.67057 15.4519 3.64762 15.5221C3.48704 16.1532 3.21174 17.1818 3.21174 17.2286C3.1888 17.2987 3.16586 17.3922 3.16586 17.4857C3.16586 17.6727 3.30351 17.813 3.48704 17.813C3.55586 17.813 3.62468 17.7896 3.67057 17.7429L5.82702 16.4571C5.98761 16.3636 6.17114 16.2935 6.35467 16.2935C6.44643 16.2935 6.56114 16.3169 6.6529 16.3403C7.66231 16.6442 8.76348 16.8078 9.88759 16.8078C15.3476 16.8078 19.7981 13.0442 19.7981 8.39221C19.7981 6.98961 19.3852 5.65714 18.674 4.48831L7.27231 11.1974L7.20349 11.2442Z" transform="translate(0.1147052 0.09350649)" id="XMLID_81_" fill="#22AC38" stroke="none" />
      <path d="M0 0L7.4329 0L7.4329 0.677922L0 0.677922L0 0Z" transform="translate(43.74855 6.054545)" id="XMLID_80_" fill="#494949" stroke="none" />
      <path d="M0 0L7.4329 0L7.4329 0.724675L0 0.724675L0 0Z" transform="translate(43.74855 8.158442)" id="XMLID_79_" fill="#494949" stroke="none" />
      <path d="M7.0429 0L7.0429 4.09091L0 4.09091L0 0L7.0429 0ZM6.33173 0.677922L0.711172 0.677922L0.711172 3.41299L6.33173 3.41299L6.33173 0.677922Z" transform="translate(43.93208 10.33247)" id="XMLID_76_" fill="#494949" fill-rule="evenodd" stroke="none" />
      <path d="M2.38587 12.7403L2.38587 3.31948C2.79881 2.38442 3.1888 1.4026 3.48704 0.397403L2.82175 0C2.15646 2.36104 1.21588 4.48831 0 6.28831L0.389998 6.98961C0.802936 6.35844 1.23882 5.61039 1.6747 4.83896L1.6747 12.7636L2.38587 12.7636L2.38587 12.7403Z" transform="translate(39.32093 2.127273)" id="XMLID_75_" fill="#494949" stroke="none" />
      <path d="M2.38587 12.7403L2.38587 3.31948C2.79881 2.38442 3.1888 1.4026 3.48704 0.397403L2.82175 0C2.15646 2.36104 1.21587 4.48831 0 6.28831L0.389998 6.98961C0.802936 6.35844 1.23882 5.61039 1.6747 4.83896L1.6747 12.7636L2.38587 12.7636L2.38587 12.7403Z" transform="translate(66.29959 2.127273)" id="XMLID_74_" fill="#494949" stroke="none" />
      <path d="M8.92406 1.82338L4.56527 1.82338L5.02409 1.54286L5.04703 1.54286L5.04703 1.51948C5.00114 1.4026 4.8635 1.0987 4.70291 0.771429C4.56527 0.467533 4.42762 0.187013 4.3588 0.0233766L4.3588 0L3.69351 0.397403L3.69351 0.420779C3.92292 0.864935 4.12939 1.28571 4.31291 1.68312C4.33585 1.72987 4.3588 1.77662 4.3588 1.8L0 1.8L0 2.52468L8.92406 2.52468L8.92406 1.82338Z" transform="translate(43.03738 2.057143)" id="XMLID_73_" fill="#494949" stroke="none" />
      <path d="M4.56527 1.00519L3.89998 1.00519L3.89998 3.38961L2.63822 3.38961L2.63822 0L1.97293 0L1.97293 3.38961L0.66529 3.38961L0.66529 1.00519L0 1.00519L0 4.06753L4.56527 4.06753L4.56527 1.00519Z" transform="translate(28.21747 2.314286)" id="XMLID_72_" fill="#494949" stroke="none" />
      <path d="M0 0L4.03762 0L4.03762 0.677922L0 0.677922L0 0Z" transform="translate(28.42394 7.714286)" id="XMLID_71_" fill="#494949" stroke="none" />
      <path d="M1.76646 1.30909L1.76646 0.701299L3.80821 0.701299L3.80821 2.1974C3.78527 2.73506 3.76233 2.8987 3.5788 3.13247L3.99174 3.85714L4.01468 3.83377C4.38174 3.52987 4.9782 3.01558 5.82702 2.24416L5.84996 2.24416L5.52879 1.68312L5.50585 1.65974L4.4735 2.54805L4.4735 0L1.05529 0L1.05529 1.02857C1.14705 2.43117 0.802936 3.43636 0.022941 4.02078L0 4.02078L0.367056 4.67532L0.389997 4.6987L0.412938 4.67532C1.37646 3.9039 1.83528 2.75844 1.76646 1.30909Z" transform="translate(27.52924 9.724675)" id="XMLID_70_" fill="#494949" stroke="none" />
      <path d="M0 3.36623L0.412939 4.06753C1.44528 3.01558 2.33999 1.75325 2.98233 0.374026L2.36293 0C1.69764 1.35584 0.8947 2.5013 0 3.36623Z" transform="translate(24.9369 2.150649)" id="XMLID_69_" fill="#494949" stroke="none" />
      <path d="M0 4.16104L0.367057 4.81558L0.389998 4.83896L0.412939 4.81558C0.802936 4.34805 1.19293 3.85714 1.55999 3.34286L1.55999 9.23377L2.22528 9.23377L2.22528 2.22078C2.52351 1.68312 2.82175 1.07532 3.09704 0.397403L3.09704 0.374026L2.45469 0L2.45469 0.0233767C1.81234 1.58961 1.00941 2.99221 0 4.16104Z" transform="translate(24.75338 5.633766)" id="XMLID_68_" fill="#494949" stroke="none" />
      <path d="M5.16173 2.47792L5.16173 3.15584L4.38174 3.15584C4.19821 5.82078 3.73939 7.87792 2.98233 9.28052C3.39527 10.0753 4.12939 11.0104 5.04703 11.9221L5.06997 11.9221L5.06997 11.9455L4.67997 12.6468L4.65703 12.6234C3.80821 11.7117 3.05116 10.7532 2.61528 9.95844C2.22528 10.6831 1.49117 11.5714 0.43588 12.5766L0.412939 12.6L0.389998 12.5766L0 11.8987L0.0229411 11.8987C1.03235 10.987 1.7894 10.0987 2.27116 9.23377C1.76646 8.15844 1.3994 6.68571 1.19293 4.86234C1.12411 5.0026 1.03235 5.16623 0.917641 5.37662L0.619408 6.00779L0.206469 5.25974C1.05529 3.85714 1.72058 2.05714 2.15646 0L2.84469 0C2.75292 0.771429 2.45469 1.68312 2.20234 2.47792L5.16173 2.47792ZM1.74352 3.76364C1.94999 5.7039 2.27116 7.27013 2.70704 8.41558C3.28057 7.12987 3.62468 5.35325 3.78527 3.15584L1.99587 3.15584C1.90411 3.34286 1.81234 3.55325 1.74352 3.76364Z" transform="translate(32.50745 2.174026)" id="XMLID_65_" fill="#494949" fill-rule="evenodd" stroke="none" />
      <path d="M12.0211 1.84675L12.0211 2.57143L6.33172 2.57143L6.33172 5.0026L9.38288 5.0026L9.97935 5.35325C9.19935 7.38701 7.89172 8.97662 6.42349 10.0753C7.40995 10.7532 8.4423 11.2442 9.26818 11.5714C10.4611 12.039 11.2411 12.2494 11.2411 12.2494L10.9429 12.8104L10.9199 12.8104C7.89172 12.0623 6.2629 10.7532 5.91879 10.5195C3.30351 12.2494 0.66529 12.8104 0.66529 12.8104L0.252351 12.0623C2.47763 11.6182 4.06056 10.8468 5.34526 10.0519C4.65703 9.46753 4.12939 8.88312 3.67056 8.32208C2.52351 6.91948 1.97293 5.63377 1.97293 5.63377L1.97293 4.97922L5.62055 4.97922L5.62055 2.57143L0 2.57143L0 1.84675L5.62055 1.84675L5.62055 0L6.35467 0L6.35467 1.84675L12.0211 1.84675ZM5.91879 9.56104C8.41936 7.73766 9.15347 5.61039 9.15347 5.61039L2.70704 5.61039C3.48704 7.27013 4.72585 8.62597 5.91879 9.56104Z" transform="translate(53.42967 2.033766)" id="XMLID_35_" fill="#494949" fill-rule="evenodd" stroke="none" />
      <path d="M4.61115 11.7584C4.4735 11.7584 4.33586 11.7584 4.19821 11.7584L4.19821 12.4831C4.4735 12.4831 4.67997 12.4831 4.81762 12.4831C5.52879 12.4831 5.89585 12.3195 6.21702 12.0156C6.51525 11.7117 6.6529 11.2675 6.62996 10.6597L6.62996 3.85714L8.55701 3.85714L8.55701 3.13247L6.62996 3.13247L6.62996 0L5.91879 0L5.91879 3.13247L0 3.13247L0 3.85714L5.91879 3.85714L5.91879 10.6597C5.89585 11.4078 5.43703 11.7584 4.61115 11.7584Z" transform="translate(69.97015 2.174026)" id="XMLID_34_" fill="#494949" stroke="none" />
      <path d="M1.44528 3.55325L2.15646 3.13247C1.76646 2.33766 1.26176 1.28571 0.642349 0L0 0.397403C0.412938 1.26234 0.8947 2.31429 1.44528 3.55325Z" transform="translate(71.53014 7.948052)" id="XMLID_33_" fill="#494949" stroke="none" />
    </g>
  </g>
</svg>